<?xml version="1.0" encoding="UTF-8"?>
<!-- Created with Inkscape (http://www.inkscape.org/) -->
<svg width="69.905mm" height="17mm" version="1.1" viewBox="0 0 69.905 17" xmlns="http://www.w3.org/2000/svg" xmlns:cc="http://creativecommons.org/ns#" xmlns:dc="http://purl.org/dc/elements/1.1/" xmlns:rdf="http://www.w3.org/1999/02/22-rdf-syntax-ns#">
 <metadata>
  <rdf:RDF>
   <cc:Work rdf:about="">
    <dc:format>image/svg+xml</dc:format>
    <dc:type rdf:resource="http://purl.org/dc/dcmitype/StillImage"/>
    <dc:title/>
   </cc:Work>
  </rdf:RDF>
 </metadata>
 <g transform="translate(-72.491 -14.754)">
  <g fill="#000000" font-family="sans-serif" font-size="10.583px" letter-spacing="0px" stroke-width=".26458" word-spacing="0px">
   <text x="45.735119" y="31.282738" style="line-height:1.25" xml:space="preserve"><tspan x="45.735119" y="40.646507" stroke-width=".26458"/></text>
   <text x="62.366074" y="34.684521" style="line-height:1.25" xml:space="preserve"><tspan x="62.366074" y="44.04829" stroke-width=".26458"/></text>
   <text x="133.04762" y="23.345238" style="line-height:1.25" xml:space="preserve"><tspan x="133.04762" y="32.709007" stroke-width=".26458"/></text>
  </g>
  <g fill="#fff" aria-label="GCF task force">
   <g stroke="#fff" stroke-width=".26458">
    <path d="m78.674 25.01c1.6256 0 2.8829-0.635 3.7973-1.4097v-3.8608h-3.8608v1.6891h1.9685v1.27c-0.4953 0.3556-1.1303 0.5334-1.8415 0.5334-1.5748 0-2.6924-1.1938-2.6924-2.8194v-0.0254c0-1.5113 1.1303-2.7686 2.5527-2.7686 1.0287 0 1.6383 0.3302 2.3241 0.9017l1.2319-1.4859c-0.9271-0.7874-1.8923-1.2192-3.4925-1.2192-2.6924 0-4.6609 2.0701-4.6609 4.5974v0.0254c0 2.6289 1.905 4.572 4.6736 4.572z" style="font-feature-settings:normal;font-variant-caps:normal;font-variant-ligatures:normal;font-variant-numeric:normal"/>
    <path d="m88.506 25.01c1.7145 0 2.7305-0.6096 3.6449-1.5875l-1.2446-1.2573c-0.6985 0.635-1.3208 1.0414-2.3368 1.0414-1.524 0-2.5781-1.27-2.5781-2.794v-0.0254c0-1.524 1.0795-2.7686 2.5781-2.7686 0.889 0 1.5875 0.381 2.2733 1.0033l1.2446-1.4351c-0.8255-0.8128-1.8288-1.3716-3.5052-1.3716-2.7305 0-4.6355 2.0701-4.6355 4.5974v0.0254c0 2.5527 1.9431 4.572 4.5593 4.572z" style="font-feature-settings:normal;font-variant-caps:normal;font-variant-ligatures:normal;font-variant-numeric:normal"/>
    <path d="m93.717 24.857h1.9558v-3.4417h4.2418v-1.778h-4.2418v-1.8923h4.8133v-1.778h-6.7691z" style="font-feature-settings:normal;font-variant-caps:normal;font-variant-ligatures:normal;font-variant-numeric:normal"/>
   </g>
   <path d="m74.733 30.2c0.28787 0 0.49671-0.06773 0.67733-0.17498v-0.68862c-0.12418 0.06773-0.26529 0.10724-0.42333 0.10724-0.19191 0-0.27658-0.09596-0.27658-0.29351v-1.2926h0.7112v-0.73378h-0.7112v-0.77329h-0.85796v0.77329h-0.36124v0.73378h0.36124v1.4337c0 0.69991 0.3556 0.90876 0.88053 0.90876z" style="font-feature-settings:normal;font-variant-caps:normal;font-variant-ligatures:normal;font-variant-numeric:normal"/>
   <path d="m76.906 30.205c0.41769 0 0.70556-0.1524 0.9144-0.38382v0.32738h0.82973v-1.7554c0-0.4064-0.1016-0.73942-0.32738-0.9652-0.21449-0.21449-0.55316-0.33867-1.0216-0.33867-0.51364 0-0.84102 0.09596-1.174 0.24271l0.21449 0.65476c0.27658-0.1016 0.508-0.16369 0.83538-0.16369 0.42898 0 0.64911 0.19756 0.64911 0.55316v0.0508c-0.21449-0.07338-0.43462-0.12418-0.73942-0.12418-0.71684 0-1.2192 0.3048-1.2192 0.9652v0.01129c0 0.59831 0.46849 0.92569 1.0386 0.92569zm0.25964-0.59267c-0.27658 0-0.46849-0.13547-0.46849-0.36689v-0.01129c0-0.27093 0.22578-0.41769 0.59267-0.41769 0.20884 0 0.40076 0.04516 0.54751 0.11289v0.1524c0 0.31044-0.27093 0.53058-0.67169 0.53058z" style="font-feature-settings:normal;font-variant-caps:normal;font-variant-ligatures:normal;font-variant-numeric:normal"/>
   <path d="m80.45 30.205c0.65476 0 1.1571-0.3048 1.1571-0.97649v-0.01129c0-0.55316-0.49107-0.75636-0.9144-0.89747-0.32738-0.11289-0.61524-0.19191-0.61524-0.36124v-0.01129c0-0.11853 0.10724-0.20884 0.31609-0.20884 0.22013 0 0.51929 0.10724 0.81844 0.28222l0.32738-0.59267c-0.32738-0.22013-0.74507-0.34996-1.1289-0.34996-0.6096 0-1.1063 0.34431-1.1063 0.95956v0.01129c0 0.58702 0.47978 0.78458 0.90311 0.90876 0.33302 0.1016 0.62653 0.16369 0.62653 0.34996v0.01129c0 0.13547-0.11289 0.22578-0.36124 0.22578-0.28222 0-0.62653-0.12418-0.95391-0.36124l-0.36689 0.56444c0.40076 0.31609 0.87489 0.4572 1.2982 0.4572z" style="font-feature-settings:normal;font-variant-caps:normal;font-variant-ligatures:normal;font-variant-numeric:normal"/>
   <path d="m82.222 30.149h0.85796v-0.92004l0.3048-0.32173 0.77329 1.2418h0.99342l-1.191-1.8344 1.1515-1.191h-1.0273l-1.0047 1.1007v-2.1957h-0.85796z" style="font-feature-settings:normal;font-variant-caps:normal;font-variant-ligatures:normal;font-variant-numeric:normal"/>
   <path d="m87.407 30.149h0.85796v-2.2916h0.68298v-0.69991h-0.69427v-0.11853c0-0.22578 0.11289-0.32738 0.31044-0.32738 0.14676 0 0.26529 0.02822 0.38947 0.07338v-0.7112c-0.15804-0.0508-0.33867-0.08467-0.6096-0.08467-0.3048 0-0.53622 0.07902-0.69427 0.23707-0.15804 0.15804-0.24271 0.40076-0.24271 0.73378v0.19191h-0.3556v0.70556h0.3556z" style="font-feature-settings:normal;font-variant-caps:normal;font-variant-ligatures:normal;font-variant-numeric:normal"/>
   <path d="m90.85 30.217c0.94262 0 1.6425-0.70556 1.6425-1.5748v-0.01129c0-0.86924-0.69427-1.5635-1.6312-1.5635-0.94262 0-1.6425 0.70556-1.6425 1.5748v0.01129c0 0.86924 0.69427 1.5635 1.6312 1.5635zm0.01129-0.73942c-0.47413 0-0.79587-0.38947-0.79587-0.83538v-0.01129c0-0.44591 0.29351-0.82409 0.78458-0.82409 0.47413 0 0.79587 0.38947 0.79587 0.83538v0.01129c0 0.44591-0.29351 0.82409-0.78458 0.82409z" style="font-feature-settings:normal;font-variant-caps:normal;font-variant-ligatures:normal;font-variant-numeric:normal"/>
   <path d="m93.114 30.149h0.85796v-1.1176c0-0.72249 0.34996-1.0668 0.92004-1.0668h0.04516v-0.89747c-0.508-0.02258-0.79022 0.24836-0.9652 0.66604v-0.6096h-0.85796z" style="font-feature-settings:normal;font-variant-caps:normal;font-variant-ligatures:normal;font-variant-numeric:normal"/>
   <path d="m96.813 30.217c0.60396 0 0.94262-0.23142 1.2361-0.55316l-0.50236-0.508c-0.20884 0.19756-0.4064 0.32173-0.69427 0.32173-0.46849 0-0.76764-0.37253-0.76764-0.83538v-0.01129c0-0.44591 0.3048-0.82409 0.73378-0.82409 0.3048 0 0.49671 0.12982 0.68862 0.33302l0.52493-0.56444c-0.28222-0.31609-0.63782-0.508-1.2079-0.508-0.92569 0-1.5861 0.7112-1.5861 1.5748v0.01129c0 0.8636 0.66604 1.5635 1.5748 1.5635z" style="font-feature-settings:normal;font-variant-caps:normal;font-variant-ligatures:normal;font-variant-numeric:normal"/>
   <path d="m99.95 30.217c0.54751 0 0.95391-0.21449 1.2361-0.56444l-0.49107-0.43462c-0.23706 0.22013-0.44591 0.31044-0.73378 0.31044-0.38382 0-0.65476-0.2032-0.73942-0.59267h2.1054c6e-3 -0.07902 0.0113-0.15804 0.0113-0.22578 0-0.85796-0.46285-1.6425-1.4732-1.6425-0.88053 0-1.4958 0.7112-1.4958 1.5748v0.01129c0 0.92569 0.67169 1.5635 1.5804 1.5635zm-0.73942-1.8175c0.06773-0.38947 0.29916-0.64347 0.65476-0.64347 0.36124 0 0.58702 0.25964 0.63782 0.64347z" style="font-feature-settings:normal;font-variant-caps:normal;font-variant-ligatures:normal;font-variant-numeric:normal"/>
  </g>
  <g fill="#fff" aria-label="Knowledge Database">
   <path d="m109.76 21.52h0.86924v-1.2079l0.4572-0.47413 1.2248 1.682h1.0442l-1.682-2.2747 1.6087-1.6764h-1.0499l-1.603 1.7272v-1.7272h-0.86924z" style="font-feature-settings:normal;font-variant-caps:normal;font-variant-ligatures:normal;font-variant-numeric:normal"/>
   <path d="m113.79 21.52h0.85795v-1.6877c0-0.4064 0.20885-0.61524 0.53622-0.61524 0.32738 0 0.51929 0.20884 0.51929 0.61524v1.6877h0.85796v-1.9586c0-0.69427-0.37818-1.1232-1.0273-1.1232-0.43462 0-0.68862 0.23142-0.88618 0.48542v-0.42898h-0.85795z" style="font-feature-settings:normal;font-variant-caps:normal;font-variant-ligatures:normal;font-variant-numeric:normal"/>
   <path d="m118.79 21.588c0.94262 0 1.6425-0.70556 1.6425-1.5748v-0.01129c0-0.86924-0.69427-1.5635-1.6312-1.5635-0.94263 0-1.6425 0.70556-1.6425 1.5748v0.01129c0 0.86924 0.69427 1.5635 1.6312 1.5635zm0.0113-0.73942c-0.47414 0-0.79587-0.38947-0.79587-0.83538v-0.01129c0-0.44591 0.29351-0.82409 0.78458-0.82409 0.47413 0 0.79586 0.38947 0.79586 0.83538v0.01129c0 0.44591-0.29351 0.82409-0.78457 0.82409z" style="font-feature-settings:normal;font-variant-caps:normal;font-variant-ligatures:normal;font-variant-numeric:normal"/>
   <path d="m121.6 21.543h0.76764l0.59267-1.857 0.58137 1.857h0.77329l0.94263-3.048h-0.85232l-0.49671 1.8401-0.57573-1.8514h-0.73942l-0.57009 1.8457-0.48542-1.8344h-0.86925z" style="font-feature-settings:normal;font-variant-caps:normal;font-variant-ligatures:normal;font-variant-numeric:normal"/>
   <path d="m125.81 21.52h0.85795v-4.1204h-0.85795z" style="font-feature-settings:normal;font-variant-caps:normal;font-variant-ligatures:normal;font-variant-numeric:normal"/>
   <path d="m128.92 21.588c0.54751 0 0.95391-0.21449 1.2361-0.56444l-0.49106-0.43462c-0.23707 0.22013-0.44591 0.31044-0.73378 0.31044-0.38382 0-0.65476-0.2032-0.73942-0.59267h2.1054c6e-3 -0.07902 0.0113-0.15804 0.0113-0.22578 0-0.85796-0.46284-1.6425-1.4732-1.6425-0.88053 0-1.4958 0.7112-1.4958 1.5748v0.01129c0 0.92569 0.67169 1.5635 1.5804 1.5635zm-0.73942-1.8175c0.0677-0.38947 0.29915-0.64347 0.65475-0.64347 0.36125 0 0.58703 0.25964 0.63783 0.64347z" style="font-feature-settings:normal;font-variant-caps:normal;font-variant-ligatures:normal;font-variant-numeric:normal"/>
   <path d="m132.19 21.577c0.44591 0 0.73378-0.20884 0.94262-0.49107v0.43462h0.85796v-4.1204h-0.85796v1.4901c-0.2032-0.24271-0.48542-0.45156-0.94262-0.45156-0.71684 0-1.3772 0.55316-1.3772 1.5635v0.01129c0 1.0104 0.67169 1.5635 1.3772 1.5635zm0.22014-0.72813c-0.40076 0-0.73943-0.33302-0.73943-0.83538v-0.01129c0-0.508 0.33867-0.83538 0.73943-0.83538 0.40075 0 0.73377 0.33302 0.73377 0.83538v0.01129c0 0.50236-0.33302 0.83538-0.73377 0.83538z" style="font-feature-settings:normal;font-variant-caps:normal;font-variant-ligatures:normal;font-variant-numeric:normal"/>
   <path d="m136.11 22.435c0.58702 0 1.0216-0.12418 1.3039-0.4064 0.254-0.254 0.38382-0.64911 0.38382-1.191v-2.3424h-0.85795v0.39511c-0.23143-0.254-0.508-0.45156-0.97649-0.45156-0.69427 0-1.3434 0.508-1.3434 1.4111v0.01129c0 0.89747 0.63782 1.4111 1.3434 1.4111 0.4572 0 0.73377-0.18627 0.98777-0.49107v0.14676c0 0.54187-0.27657 0.82409-0.8636 0.82409-0.40075 0-0.7112-0.1016-1.0216-0.27658l-0.29351 0.64347c0.38382 0.2032 0.84667 0.31609 1.3377 0.31609zm0.1016-1.874c-0.41769 0-0.73378-0.28222-0.73378-0.69991v-0.01129c0-0.41204 0.31609-0.69991 0.73378-0.69991s0.73942 0.28787 0.73942 0.69991v0.01129c0 0.41204-0.32173 0.69991-0.73942 0.69991z" style="font-feature-settings:normal;font-variant-caps:normal;font-variant-ligatures:normal;font-variant-numeric:normal"/>
   <path d="m140.01 21.588c0.54751 0 0.95391-0.21449 1.2361-0.56444l-0.49107-0.43462c-0.23707 0.22013-0.44591 0.31044-0.73378 0.31044-0.38382 0-0.65475-0.2032-0.73942-0.59267h2.1054c6e-3 -0.07902 0.0113-0.15804 0.0113-0.22578 0-0.85796-0.46285-1.6425-1.4732-1.6425-0.88054 0-1.4958 0.7112-1.4958 1.5748v0.01129c0 0.92569 0.67169 1.5635 1.5804 1.5635zm-0.73942-1.8175c0.0677-0.38947 0.29916-0.64347 0.65476-0.64347 0.36124 0 0.58702 0.25964 0.63782 0.64347z" style="font-feature-settings:normal;font-variant-caps:normal;font-variant-ligatures:normal;font-variant-numeric:normal"/>
   <path d="m109.76 28.75h1.5409c1.2418 0 2.0997-0.8636 2.0997-1.9756v-0.01129c0-1.112-0.85795-1.9643-2.0997-1.9643h-1.5409zm1.5409-3.1665c0.7112 0 1.191 0.49107 1.191 1.191v0.01129c0 0.69991-0.47978 1.1797-1.191 1.1797h-0.67169v-2.382z" style="font-feature-settings:normal;font-variant-caps:normal;font-variant-ligatures:normal;font-variant-numeric:normal"/>
   <path d="m114.94 28.806c0.41769 0 0.70556-0.1524 0.9144-0.38382v0.32738h0.82974v-1.7554c0-0.4064-0.1016-0.73942-0.32738-0.9652-0.21449-0.21449-0.55316-0.33867-1.0216-0.33867-0.51364 0-0.84102 0.09596-1.174 0.24271l0.21449 0.65476c0.27658-0.1016 0.508-0.16369 0.83538-0.16369 0.42897 0 0.64911 0.19756 0.64911 0.55316v0.0508c-0.21449-0.07338-0.43462-0.12418-0.73942-0.12418-0.71685 0-1.2192 0.3048-1.2192 0.9652v0.01129c0 0.59831 0.46848 0.92569 1.0386 0.92569zm0.25965-0.59267c-0.27658 0-0.46849-0.13547-0.46849-0.36689v-0.01129c0-0.27093 0.22578-0.41769 0.59267-0.41769 0.20884 0 0.40075 0.04516 0.54751 0.11289v0.1524c0 0.31044-0.27094 0.53058-0.67169 0.53058z" style="font-feature-settings:normal;font-variant-caps:normal;font-variant-ligatures:normal;font-variant-numeric:normal"/>
   <path d="m118.41 28.801c0.28787 0 0.49672-0.06773 0.67734-0.17498v-0.68862c-0.12418 0.06773-0.26529 0.10724-0.42334 0.10724-0.19191 0-0.27657-0.09596-0.27657-0.29351v-1.2926h0.7112v-0.73378h-0.7112v-0.77329h-0.85796v0.77329h-0.36124v0.73378h0.36124v1.4337c0 0.69991 0.3556 0.90876 0.88053 0.90876z" style="font-feature-settings:normal;font-variant-caps:normal;font-variant-ligatures:normal;font-variant-numeric:normal"/>
   <path d="m120.58 28.806c0.41769 0 0.70555-0.1524 0.9144-0.38382v0.32738h0.82973v-1.7554c0-0.4064-0.1016-0.73942-0.32738-0.9652-0.21449-0.21449-0.55315-0.33867-1.0216-0.33867-0.51365 0-0.84102 0.09596-1.174 0.24271l0.21449 0.65476c0.27658-0.1016 0.508-0.16369 0.83538-0.16369 0.42898 0 0.64911 0.19756 0.64911 0.55316v0.0508c-0.21449-0.07338-0.43462-0.12418-0.73942-0.12418-0.71684 0-1.2192 0.3048-1.2192 0.9652v0.01129c0 0.59831 0.46849 0.92569 1.0386 0.92569zm0.25964-0.59267c-0.27658 0-0.46849-0.13547-0.46849-0.36689v-0.01129c0-0.27093 0.22578-0.41769 0.59267-0.41769 0.20884 0 0.40076 0.04516 0.54751 0.11289v0.1524c0 0.31044-0.27093 0.53058-0.67169 0.53058z" style="font-feature-settings:normal;font-variant-caps:normal;font-variant-ligatures:normal;font-variant-numeric:normal"/>
   <path d="m124.86 28.806c0.71685 0 1.3772-0.55316 1.3772-1.5635v-0.01129c0-1.0104-0.67169-1.5635-1.3772-1.5635-0.44591 0-0.73377 0.20884-0.94262 0.49107v-1.5296h-0.85795v4.1204h0.85795v-0.39511c0.2032 0.24271 0.48542 0.45156 0.94262 0.45156zm-0.22013-0.72813c-0.40075 0-0.73378-0.33302-0.73378-0.83538v-0.01129c0-0.50236 0.33303-0.83538 0.73378-0.83538 0.40076 0 0.73942 0.33302 0.73942 0.83538v0.01129c0 0.508-0.33866 0.83538-0.73942 0.83538z" style="font-feature-settings:normal;font-variant-caps:normal;font-variant-ligatures:normal;font-variant-numeric:normal"/>
   <path d="m127.73 28.806c0.41769 0 0.70556-0.1524 0.9144-0.38382v0.32738h0.82973v-1.7554c0-0.4064-0.1016-0.73942-0.32737-0.9652-0.21449-0.21449-0.55316-0.33867-1.0216-0.33867-0.51364 0-0.84102 0.09596-1.174 0.24271l0.21449 0.65476c0.27657-0.1016 0.508-0.16369 0.83537-0.16369 0.42898 0 0.64912 0.19756 0.64912 0.55316v0.0508c-0.21449-0.07338-0.43463-0.12418-0.73943-0.12418-0.71684 0-1.2192 0.3048-1.2192 0.9652v0.01129c0 0.59831 0.46849 0.92569 1.0386 0.92569zm0.25965-0.59267c-0.27658 0-0.46849-0.13547-0.46849-0.36689v-0.01129c0-0.27093 0.22577-0.41769 0.59266-0.41769 0.20885 0 0.40076 0.04516 0.54751 0.11289v0.1524c0 0.31044-0.27093 0.53058-0.67168 0.53058z" style="font-feature-settings:normal;font-variant-caps:normal;font-variant-ligatures:normal;font-variant-numeric:normal"/>
   <path d="m131.28 28.806c0.65475 0 1.1571-0.3048 1.1571-0.97649v-0.01129c0-0.55316-0.49107-0.75636-0.9144-0.89747-0.32738-0.11289-0.61525-0.19191-0.61525-0.36124v-0.01129c0-0.11853 0.10725-0.20884 0.31609-0.20884 0.22013 0 0.51929 0.10724 0.81845 0.28222l0.32737-0.59267c-0.32737-0.22013-0.74506-0.34996-1.1289-0.34996-0.6096 0-1.1063 0.34431-1.1063 0.95956v0.01129c0 0.58702 0.47978 0.78458 0.90311 0.90876 0.33303 0.1016 0.62654 0.16369 0.62654 0.34996v0.01129c0 0.13547-0.11289 0.22578-0.36125 0.22578-0.28222 0-0.62653-0.12418-0.95391-0.36124l-0.36689 0.56444c0.40076 0.31609 0.87489 0.4572 1.2982 0.4572z" style="font-feature-settings:normal;font-variant-caps:normal;font-variant-ligatures:normal;font-variant-numeric:normal"/>
   <path d="m134.48 28.818c0.54751 0 0.95391-0.21449 1.2361-0.56444l-0.49107-0.43462c-0.23706 0.22013-0.44591 0.31044-0.73377 0.31044-0.38383 0-0.65476-0.2032-0.73943-0.59267h2.1054c6e-3 -0.07902 0.0113-0.15804 0.0113-0.22578 0-0.85796-0.46284-1.6425-1.4732-1.6425-0.88053 0-1.4958 0.7112-1.4958 1.5748v0.01129c0 0.92569 0.67169 1.5635 1.5804 1.5635zm-0.73942-1.8175c0.0677-0.38947 0.29915-0.64347 0.65475-0.64347 0.36125 0 0.58702 0.25964 0.63782 0.64347z" style="font-feature-settings:normal;font-variant-caps:normal;font-variant-ligatures:normal;font-variant-numeric:normal"/>
  </g>
  <path d="m105.45 15.754v15" fill="#fff" stroke="#fff" stroke-width=".55812"/>
 </g>
</svg>
